<svg width="128px" height="128px" viewBox="0 0 128 128" fill="none" xmlns="http://www.w3.org/2000/svg">
<path fill-rule="evenodd" clip-rule="evenodd" d="M16.5 36.0001C16.5 30.7534 20.7533 26.5001 26 26.5001H56C62.3513 26.5001 67.5 31.6488 67.5 38.0001V43.4376C67.5 43.7137 67.2761 43.9376 67 43.9376C66.7239 43.9376 66.5 43.7137 66.5 43.4376V38.0001C66.5 32.2011 61.799 27.5001 56 27.5001H26C21.3056 27.5001 17.5 31.3056 17.5 36.0001V92.0001C17.5 96.6945 21.3056 100.5 26 100.5H56C61.799 100.5 66.5 95.799 66.5 90.0001V56.5938C66.5 56.3177 66.7239 56.0938 67 56.0938C67.2761 56.0938 67.5 56.3177 67.5 56.5938V90.0001C67.5 96.3513 62.3513 101.5 56 101.5H26C20.7533 101.5 16.5 97.2468 16.5 92.0001V36.0001Z" fill="black"/>
<path fill-rule="evenodd" clip-rule="evenodd" d="M97.8532 19.2738C93.1648 14.0331 87.3724 10.9763 80.3414 11.5477C73.6723 12.0897 69.2475 14.8187 66.4103 18.1545C63.5627 21.5025 62.2938 25.4876 61.9976 28.5482C61.971 28.8231 61.7267 29.0243 61.4518 28.9977C61.1769 28.9711 60.9757 28.7267 61.0023 28.4519C61.3148 25.223 62.6474 21.0352 65.6486 17.5066C68.6603 13.9656 73.3316 11.1141 80.2604 10.551C87.6784 9.94813 93.7574 13.1957 98.5985 18.6071C103.429 24.007 107.05 31.5816 109.602 39.7255C115.514 58.5918 113.536 82.1769 106.074 97.3458C97.2643 115.253 86.4774 118 82 118C79.8223 118 75.3907 117.618 71.1047 115.126C66.7966 112.622 62.6813 108.012 61.1333 99.6535C61.083 99.382 61.2624 99.1211 61.5339 99.0708C61.8054 99.0206 62.0663 99.1999 62.1166 99.4714C63.612 107.546 67.5538 111.906 71.6072 114.262C75.6827 116.631 79.917 117 82 117C86.0439 117 96.5108 114.519 105.176 96.9044C112.519 81.9774 114.486 58.6584 108.648 40.0245C106.118 31.9515 102.552 24.5261 97.8532 19.2738Z" fill="black"/>
<path fill-rule="evenodd" clip-rule="evenodd" d="M67.2853 119.421C57.2789 118.875 47.6133 116.071 42.8417 112.883C37.469 109.293 32.7394 103.789 31.16 100.827C31.03 100.584 30.7271 100.491 30.4835 100.621C30.2398 100.751 30.1477 101.054 30.2776 101.298C31.9444 104.423 36.795 110.046 42.2861 113.715C47.2631 117.04 57.1281 119.868 67.2308 120.419C77.3215 120.97 87.8478 119.26 94.0345 113.298C94.2333 113.106 94.2392 112.789 94.0476 112.591C93.8559 112.392 93.5394 112.386 93.3406 112.578C87.4648 118.24 77.3036 119.968 67.2853 119.421Z" fill="black"/>
<path fill-rule="evenodd" clip-rule="evenodd" d="M65.8622 17.5065C65.9937 17.2637 66.2971 17.1734 66.54 17.305C71.5719 20.0306 79.5556 28.4984 82.6193 45.6552C85.466 61.5969 85.1109 76.6829 81.3905 89.7042C77.662 102.754 71.3638 108.38 66.5187 110.712C66.2698 110.832 65.971 110.727 65.8513 110.478C65.7315 110.229 65.8361 109.931 66.085 109.811C70.6363 107.62 76.7671 102.246 80.429 89.4295C84.099 76.5846 84.4609 61.6568 81.6348 45.831C78.6119 28.9027 70.7703 20.7337 66.0637 18.1842C65.8209 18.0527 65.7306 17.7493 65.8622 17.5065Z" fill="black"/>
<path fill-rule="evenodd" clip-rule="evenodd" d="M83.6369 13.2308C78.1525 11.9639 72.8444 13.7161 68.6401 15.9419C68.3961 16.0711 68.0935 15.978 67.9643 15.734C67.8351 15.4899 67.9282 15.1874 68.1722 15.0581C72.4679 12.784 78.0374 10.9109 83.862 12.2565C89.7074 13.6068 95.6789 18.1666 100.834 28.4769C107.46 41.7297 109.067 56.623 108.078 69.9108C107.089 83.194 103.502 94.9227 99.6882 101.866C97.5663 105.728 94.203 110.918 89.2234 114.035C84.1989 117.179 77.5897 118.173 69.1136 113.748C68.8688 113.62 68.7739 113.318 68.9017 113.073C69.0295 112.829 69.3316 112.734 69.5764 112.861C77.7552 117.132 83.9853 116.133 88.6929 113.187C93.4454 110.213 96.7071 105.216 98.8117 101.384C102.544 94.5904 106.1 83.0065 107.081 69.8366C108.061 56.6713 106.463 41.9709 99.9396 28.9241C94.8692 18.7833 89.1003 14.4929 83.6369 13.2308Z" fill="black"/>
<path fill-rule="evenodd" clip-rule="evenodd" d="M65.7193 9.042C55.3369 9.7045 45.6785 12.7304 40.7725 15.9192C36.5519 18.6626 34.2245 20.999 32.832 22.8745C31.7664 24.3096 31.2478 25.4667 30.8277 26.4038C30.6958 26.6982 30.5736 26.9709 30.4472 27.2237C30.3237 27.4706 30.0234 27.5708 29.7764 27.4473C29.5294 27.3238 29.4293 27.0234 29.5528 26.7764C29.659 26.5639 29.7686 26.3192 29.8913 26.0448C30.3129 25.1027 30.8906 23.8117 32.0291 22.2784C33.5069 20.2881 35.9296 17.8744 40.2275 15.0808C45.3215 11.7697 55.1631 8.71356 65.6556 8.04403C76.1479 7.37453 87.4228 9.08305 95.3139 15.4468C95.5288 15.6201 95.5625 15.9349 95.3892 16.1498C95.2158 16.3648 94.9011 16.3985 94.6861 16.2252C87.0771 10.0889 76.1021 8.37948 65.7193 9.042Z" fill="black"/>
<path fill-rule="evenodd" clip-rule="evenodd" d="M26 30.5C21.3056 30.5 17.5 34.3056 17.5 39V89C17.5 93.6944 21.3056 97.5 26 97.5H52C56.1421 97.5 59.5 94.1421 59.5 90V38C59.5 33.8579 56.1421 30.5 52 30.5H26ZM16.5 39C16.5 33.7533 20.7533 29.5 26 29.5H52C56.6944 29.5 60.5 33.3056 60.5 38V90C60.5 94.6944 56.6944 98.5 52 98.5H26C20.7533 98.5 16.5 94.2467 16.5 89V39Z" fill="black"/>
<path fill-rule="evenodd" clip-rule="evenodd" d="M64.728 46.252C64.1381 47.0386 63.7584 48.1482 63.7584 49.3951C63.7584 50.642 64.1381 51.7516 64.728 52.5382C65.3179 53.3247 66.0946 53.7644 66.9104 53.7644C67.7262 53.7644 68.5029 53.3247 69.0927 52.5382C69.6827 51.7516 70.0624 50.642 70.0624 49.3951C70.0624 48.1482 69.6827 47.0386 69.0927 46.252C68.5029 45.4655 67.7262 45.0258 66.9104 45.0258C66.0946 45.0258 65.3179 45.4655 64.728 46.252ZM63.928 45.652C64.6599 44.6761 65.7092 44.0258 66.9104 44.0258C68.1115 44.0258 69.1608 44.6761 69.8927 45.652C70.6245 46.6277 71.0624 47.9528 71.0624 49.3951C71.0624 50.8375 70.6245 52.1625 69.8927 53.1382C69.1608 54.1141 68.1115 54.7644 66.9104 54.7644C65.7092 54.7644 64.6599 54.1141 63.928 53.1382C63.1962 52.1625 62.7584 50.8375 62.7584 49.3951C62.7584 47.9528 63.1962 46.6277 63.928 45.652Z" fill="black"/>
<path fill-rule="evenodd" clip-rule="evenodd" d="M62.6544 45.5636C61.8418 46.6809 61.3239 48.2491 61.3239 50.0038C61.3239 51.7584 61.8418 53.3267 62.6544 54.444C63.4674 55.5618 64.5479 56.1991 65.6932 56.1991C66.8384 56.1991 67.919 55.5618 68.7319 54.444C69.5445 53.3267 70.0625 51.7584 70.0625 50.0038C70.0625 48.2491 69.5445 46.6809 68.7319 45.5636C67.919 44.4458 66.8384 43.8085 65.6932 43.8085C64.5479 43.8085 63.4674 44.4458 62.6544 45.5636ZM61.8457 44.9754C62.7951 43.67 64.1492 42.8085 65.6932 42.8085C67.2372 42.8085 68.5913 43.67 69.5406 44.9754C70.4904 46.2813 71.0625 48.0607 71.0625 50.0038C71.0625 51.9468 70.4904 53.7262 69.5406 55.0321C68.5913 56.3376 67.2372 57.1991 65.6932 57.1991C64.1492 57.1991 62.7951 56.3376 61.8457 55.0321C60.8959 53.7262 60.3239 51.9468 60.3239 50.0038C60.3239 48.0607 60.8959 46.2813 61.8457 44.9754Z" fill="black"/>
<path fill-rule="evenodd" clip-rule="evenodd" d="M26.0532 47.0742C23.0347 51.3862 21.1519 57.3699 21.1519 64.003C21.1519 70.6361 23.0347 76.6198 26.0532 80.9319C29.0727 85.2455 33.1962 87.8496 37.6945 87.8496C42.1927 87.8496 46.3162 85.2455 49.3358 80.9319C52.3542 76.6198 54.237 70.6361 54.237 64.003C54.237 57.3699 52.3542 51.3862 49.3358 47.0742C46.3162 42.7605 42.1927 40.1565 37.6945 40.1565C33.1962 40.1565 29.0727 42.7605 26.0532 47.0742ZM25.2339 46.5007C28.3826 42.0026 32.7804 39.1565 37.6945 39.1565C42.6086 39.1565 47.0064 42.0026 50.155 46.5007C53.3048 51.0003 55.237 57.1899 55.237 64.003C55.237 70.8161 53.3048 77.0057 50.155 81.5054C47.0064 86.0034 42.6086 88.8496 37.6945 88.8496C32.7804 88.8496 28.3826 86.0034 25.2339 81.5054C22.0842 77.0057 20.1519 70.8161 20.1519 64.003C20.1519 57.1899 22.0842 51.0003 25.2339 46.5007Z" fill="black"/>
<path fill-rule="evenodd" clip-rule="evenodd" d="M48.4043 52.094C48.5945 52.2942 48.5864 52.6107 48.3862 52.8009L36.2129 64.3655C36.0163 64.5523 35.7067 64.5483 35.515 64.3566L28.211 57.0526C28.0158 56.8574 28.0158 56.5408 28.211 56.3455C28.4063 56.1502 28.7229 56.1502 28.9182 56.3455L35.8775 63.3049L47.6974 52.0759C47.8977 51.8857 48.2141 51.8938 48.4043 52.094Z" fill="black"/>
</svg>
